<svg xmlns="http://www.w3.org/2000/svg" xmlns:xlink="http://www.w3.org/1999/xlink" version="1.1" x="0px" y="0px" viewBox="0 0 100 125" enable-background="new 0 0 100 100" xml:space="preserve"><path d="M97.417,93.936H67.66C84.59,86.53,96.454,69.629,96.454,50c0-26.432-21.504-47.936-47.937-47.936  C22.086,2.064,0.583,23.568,0.583,50s21.503,47.936,47.935,47.936h48.899c1.104,0,2-0.896,2-2S98.521,93.936,97.417,93.936z   M4.583,50c0-24.226,19.709-43.936,43.935-43.936c24.227,0,43.937,19.709,43.937,43.936c0,24.227-19.71,43.936-43.937,43.936  C24.292,93.936,4.583,74.227,4.583,50z"/><path d="M61.354,73.518c0-0.971-0.118-1.913-0.323-2.823c-0.011-0.05-0.023-0.1-0.038-0.149c-1.347-5.646-6.422-9.862-12.475-9.862  c-6.076,0-11.169,4.249-12.491,9.928c0,0.001,0,0.002-0.001,0.004c-0.217,0.935-0.344,1.903-0.344,2.903  c0,7.078,5.758,12.836,12.836,12.836C55.597,86.354,61.354,80.596,61.354,73.518z M48.519,64.683c3.635,0,6.762,2.207,8.117,5.351  c-2.57,1.045-5.292,1.582-8.117,1.582c-2.826,0-5.547-0.537-8.117-1.582C41.757,66.89,44.884,64.683,48.519,64.683z M39.71,74.061  c2.806,1.031,5.758,1.555,8.809,1.555s6.002-0.523,8.809-1.555c-0.283,4.619-4.12,8.293-8.809,8.293  C43.83,82.354,39.993,78.68,39.71,74.061z"/><path d="M37.836,50c0-6.043-4.204-11.111-9.837-12.468c-0.068-0.021-0.136-0.039-0.204-0.053c-0.901-0.201-1.834-0.315-2.795-0.315  c-7.077,0-12.835,5.758-12.835,12.836c0,7.077,5.758,12.835,12.835,12.835c0.963,0,1.897-0.115,2.8-0.317  c0.036-0.007,0.071-0.018,0.107-0.027C33.587,61.168,37.836,56.076,37.836,50z M33.836,50c0,3.635-2.208,6.762-5.351,8.116  c-1.045-2.571-1.583-5.292-1.583-8.116c0-2.825,0.537-5.546,1.583-8.116C31.629,43.239,33.836,46.366,33.836,50z M16.165,50  c0-4.689,3.674-8.526,8.293-8.809c-1.032,2.807-1.556,5.758-1.556,8.809c0,3.05,0.523,6.001,1.555,8.808  C19.839,58.524,16.165,54.688,16.165,50z"/><path d="M59.201,50c0,6.084,4.26,11.182,9.949,12.496c0.024,0.006,0.047,0.013,0.071,0.018c0.907,0.204,1.847,0.321,2.814,0.321  c7.078,0,12.836-5.758,12.836-12.835c0-7.078-5.758-12.836-12.836-12.836c-0.981,0-1.935,0.121-2.854,0.331  c-0.031,0.008-0.063,0.015-0.095,0.025C63.43,38.857,59.201,43.938,59.201,50z M63.201,50c0-3.635,2.207-6.762,5.351-8.117  c1.045,2.57,1.582,5.291,1.582,8.117c0,2.825-0.537,5.546-1.582,8.116C65.408,56.762,63.201,53.635,63.201,50z M80.872,50  c0,4.688-3.674,8.524-8.293,8.808c1.031-2.807,1.555-5.757,1.555-8.808s-0.523-6.002-1.555-8.809  C77.198,41.475,80.872,45.311,80.872,50z"/><path d="M36.042,29.447c1.344,5.651,6.421,9.872,12.477,9.872c7.078,0,12.836-5.758,12.836-12.836  c0-7.077-5.758-12.835-12.836-12.835c-7.078,0-12.836,5.758-12.836,12.835c0,0.975,0.119,1.922,0.326,2.835  C36.019,29.361,36.029,29.404,36.042,29.447z M48.519,35.318c-3.635,0-6.762-2.208-8.117-5.351c2.571-1.046,5.292-1.583,8.117-1.583  s5.547,0.537,8.117,1.583C55.281,33.111,52.153,35.318,48.519,35.318z M48.519,17.647c4.688,0,8.525,3.673,8.809,8.292  c-2.808-1.032-5.759-1.555-8.809-1.555s-6.001,0.524-8.809,1.556C39.993,21.321,43.83,17.647,48.519,17.647z"/><path d="M41.795,50c0,3.707,3.016,6.723,6.724,6.723c3.707,0,6.723-3.016,6.723-6.723c0-3.708-3.016-6.724-6.723-6.724  C44.811,43.276,41.795,46.292,41.795,50z M51.241,50c0,1.501-1.221,2.723-2.723,2.723c-1.502,0-2.724-1.222-2.724-2.723  c0-1.502,1.222-2.724,2.724-2.724C50.02,47.276,51.241,48.498,51.241,50z"/></svg>